<svg width="35" height="35" viewBox="0 0 35 35" fill="none" xmlns="http://www.w3.org/2000/svg">
<path d="M34.2248 0.801781C33.9792 0.555679 33.6874 0.360431 33.3663 0.227213C33.0451 0.0939946 32.7009 0.0254225 32.3532 0.0254225C32.0055 0.0254225 31.6612 0.0939946 31.3401 0.227213C31.0189 0.360431 30.7272 0.555679 30.4816 0.801781L17.5 13.7568L4.5184 0.775234C4.27262 0.529454 3.98083 0.334491 3.65971 0.201476C3.33858 0.0684612 2.9944 2.58971e-09 2.64682 0C2.29923 -2.58971e-09 1.95505 0.0684612 1.63392 0.201476C1.3128 0.334491 1.02101 0.529454 0.775234 0.775234C0.529454 1.02101 0.334491 1.3128 0.201476 1.63392C0.0684612 1.95505 -2.58971e-09 2.29923 0 2.64682C2.58971e-09 2.9944 0.0684612 3.33858 0.201476 3.65971C0.334491 3.98083 0.529454 4.27262 0.775234 4.5184L13.7568 17.5L0.775234 30.4816C0.529454 30.7274 0.334491 31.0192 0.201476 31.3403C0.0684612 31.6614 0 32.0056 0 32.3532C0 32.7008 0.0684612 33.045 0.201476 33.3661C0.334491 33.6872 0.529454 33.979 0.775234 34.2248C1.02101 34.4705 1.3128 34.6655 1.63392 34.7985C1.95505 34.9315 2.29923 35 2.64682 35C2.9944 35 3.33858 34.9315 3.65971 34.7985C3.98083 34.6655 4.27262 34.4705 4.5184 34.2248L17.5 21.2432L30.4816 34.2248C30.7274 34.4705 31.0192 34.6655 31.3403 34.7985C31.6614 34.9315 32.0056 35 32.3532 35C32.7008 35 33.045 34.9315 33.3661 34.7985C33.6872 34.6655 33.979 34.4705 34.2248 34.2248C34.4705 33.979 34.6655 33.6872 34.7985 33.3661C34.9315 33.045 35 32.7008 35 32.3532C35 32.0056 34.9315 31.6614 34.7985 31.3403C34.6655 31.0192 34.4705 30.7274 34.2248 30.4816L21.2432 17.5L34.2248 4.5184C35.2336 3.5096 35.2336 1.81058 34.2248 0.801781Z" fill="black"/>
</svg>
